<svg xmlns="http://www.w3.org/2000/svg" xmlns:xlink="http://www.w3.org/1999/xlink" version="1.1" width="95.23880004882812" height="18.383899688720703" viewBox="-0.5225000008940697 -0.2675999850034714 95.23880004882812 18.383899688720703">
  <!-- Exported by Scratch - http://scratch.mit.edu/ -->
  <path id="ID0.9399593351408839" fill="#000000" stroke="none" d="M -0.0225 0.2324 L 94.2163 0.2324 L 94.2163 17.6163 L -0.0225 17.6163 L -0.0225 0.2324 Z " stroke-width="0.8648403023576277"/>
  <text id="ID0.7000794266350567" fill="#FFFFFF" text-anchor="start" font-family="Serif" font-size="22" transform="matrix(0.522395 0 0 0.588955 2.64479 -2.00582)" stroke-width="1" alignment-baseline="text-before-edge" xml:space="preserve"><tspan x="0" style="white-space: pre" dy="1.25em">Auto-On</tspan></text>
  <path id="ID0.7467917278409004" fill="#00FF55" stroke="none" stroke-linecap="round" d="M 78 7 C 79.571 6.953 81.238 6.77 82.729 7.379 C 83.535 7.708 84.227 8.697 84.25 9.5 C 84.227 10.429 83.52 11.277 82.729 11.621 C 81.247 12.263 79.586 12.095 78 12 C 75.919 12.095 73.718 12.277 71.771 11.621 C 71.041 11.373 70.441 10.467 70.5 9.75 C 70.441 8.801 70.927 7.699 71.771 7.379 C 73.687 6.656 75.909 6.953 78 7 Z " stroke-width="1"/>
  <path id="ID0.5928368270397186" fill="#7F7F7F" stroke="none" d="M 78.875 4.25 C 80.358 4.25 81.702 4.852 82.675 5.825 C 83.648 6.798 84.25 8.142 84.25 9.625 C 84.25 11.108 83.648 12.452 82.675 13.425 C 81.702 14.398 80.358 15 78.875 15 C 77.392 15 76.048 14.398 75.075 13.425 C 74.102 12.452 73.5 11.108 73.5 9.625 C 73.5 8.142 74.102 6.798 75.075 5.825 C 76.048 4.852 77.392 4.25 78.875 4.25 Z " stroke-width="1"/>
</svg>